<?xml version="1.0" standalone="no"?>
<!DOCTYPE svg PUBLIC "-//W3C//DTD SVG 20010904//EN"
 "http://www.w3.org/TR/2001/REC-SVG-20010904/DTD/svg10.dtd">
<svg version="1.0" xmlns="http://www.w3.org/2000/svg"
 width="190.000000pt" height="190.000000pt" viewBox="0 0 190.000000 190.000000"
 preserveAspectRatio="xMidYMid meet">
<metadata>
Created by potrace 1.11, written by Peter Selinger 2001-2013
</metadata>
<g transform="translate(0.000000,190.000000) scale(0.100000,-0.100000)"
fill="#000000" stroke="none">
<path d="M22 1875 c0 -16 2 -22 5 -12 2 9 2 23 0 30 -3 6 -5 -1 -5 -18z"/>
<path d="M50 1874 c0 -13 -4 -26 -10 -29 -14 -9 -12 -66 5 -95 14 -26 13 -27
30 25 6 21 25 19 23 -2 -3 -41 3 -84 11 -79 5 3 6 -23 3 -59 -3 -38 -1 -65 5
-65 5 0 7 -24 5 -52 -2 -29 -3 -70 -3 -91 0 -22 -6 -51 -14 -65 l-15 -27 5 30
c3 17 2 24 -1 18 -9 -20 -23 -15 -21 7 1 11 7 20 14 20 9 0 10 7 3 24 -5 13
-6 27 -3 30 3 3 0 13 -7 22 -11 12 -11 17 -1 23 14 9 18 93 6 168 -7 45 -10
50 -22 37 -8 -7 -12 -18 -8 -23 3 -5 0 -13 -6 -17 -6 -3 -15 0 -20 7 -6 11 -9
10 -14 -3 -7 -18 -3 -50 7 -58 3 -3 1 -30 -6 -61 -9 -37 -13 -138 -14 -305 0
-222 1 -245 13 -209 l14 40 -1 -50 c-1 -27 2 -66 6 -85 l7 -35 -15 38 c-22 58
-26 56 -26 -11 0 -62 10 -77 29 -44 10 16 10 16 11 0 0 -10 -9 -27 -20 -38
-11 -11 -20 -32 -20 -46 0 -23 3 -26 25 -22 38 8 41 -10 6 -46 l-31 -32 0
-357 0 -357 471 0 c311 0 468 3 464 10 -3 5 -15 10 -26 10 -10 0 -18 3 -18 8
4 26 -1 34 -16 22 -12 -10 -15 -10 -15 3 0 8 -7 18 -16 21 -8 3 -12 10 -9 16
3 6 -2 13 -12 16 -57 19 -71 29 -62 40 7 8 6 14 -1 19 -5 3 -10 1 -10 -4 0
-16 -17 -13 -23 3 -4 10 -1 13 7 10 8 -3 17 -1 20 4 6 10 69 -7 83 -23 5 -4 1
-6 -8 -2 -13 4 -16 1 -12 -14 8 -29 24 -34 30 -9 5 19 10 21 44 15 26 -4 39
-3 39 4 0 6 -3 11 -7 11 -5 1 -21 12 -38 26 -16 15 -23 23 -15 19 12 -6 12 -4
-1 10 -19 19 -64 12 -52 -8 3 -7 -8 3 -25 22 -37 38 -38 41 -14 42 14 0 14 2
-3 9 -20 9 -20 9 1 9 11 1 24 5 30 9 5 5 20 6 34 1 16 -4 19 -7 8 -8 -10 -1
-18 -5 -18 -11 0 -10 6 -12 49 -14 13 -1 29 -10 35 -21 6 -11 17 -25 25 -31
12 -9 12 -13 -4 -21 -22 -13 -10 -21 41 -28 22 -4 54 -11 73 -17 22 -7 36 -7
40 -1 3 6 33 14 66 18 33 4 65 11 72 17 10 8 103 14 128 7 17 -4 94 35 100 50
3 8 0 20 -7 28 -15 14 -105 34 -124 26 -6 -2 -15 0 -18 6 -4 5 -18 8 -32 5
-22 -4 -25 -2 -19 16 3 11 2 20 -4 20 -5 0 -12 -10 -14 -22 -4 -22 -5 -22 -11
-3 -5 13 -17 22 -34 23 -32 3 -47 16 -37 32 6 9 10 9 16 -1 5 -8 9 -9 9 -3 0
7 22 8 67 3 37 -4 78 -5 92 -2 14 3 64 7 110 10 79 4 85 3 110 -21 26 -25 27
-25 39 -5 7 11 17 17 22 14 5 -3 12 6 16 20 3 14 12 25 18 25 7 0 13 18 14 43
6 99 5 95 29 86 13 -5 25 -4 28 1 4 6 1 10 -5 10 -6 0 -9 16 -8 39 3 36 18 49
18 15 0 -8 5 -12 11 -9 7 5 8 -6 4 -32 l-6 -38 17 38 17 38 -37 35 c-20 19
-32 34 -27 34 6 0 13 -5 16 -10 4 -6 11 -8 16 -5 5 4 3 13 -6 21 -8 9 -15 21
-15 29 0 7 -8 15 -17 19 -10 3 -23 8 -29 11 -7 3 -28 -11 -48 -32 -20 -21 -36
-33 -36 -26 0 6 5 15 10 18 23 14 9 27 -24 21 -29 -6 -40 -2 -68 22 -32 27
-82 54 -122 67 -10 3 -16 8 -13 12 4 3 2 12 -3 19 -6 6 -9 18 -8 25 5 23 -24
16 -33 -8 -5 -14 -3 -25 6 -33 7 -6 11 -19 8 -29 -4 -15 -15 -17 -81 -15 -42
2 -79 4 -82 5 -3 1 -13 1 -22 0 -18 -2 -23 15 -12 44 4 8 22 22 40 30 19 8 34
20 34 27 0 8 13 19 29 25 23 8 28 8 25 -2 -3 -7 5 -14 20 -17 14 -3 23 -1 20
4 -3 4 2 11 10 14 21 8 21 24 0 24 -8 0 -13 4 -10 8 6 10 -36 8 -54 -3 -8 -5
-11 -4 -7 2 4 6 -3 13 -16 16 -12 2 -30 8 -40 12 -13 6 -16 4 -11 -9 3 -9 10
-14 14 -11 5 3 7 -3 5 -12 -2 -10 -4 -20 -4 -22 -1 -3 -6 0 -13 7 -9 9 -14 6
-23 -11 -6 -12 -17 -21 -23 -20 -11 3 -12 -9 -12 -75 0 -19 -4 -31 -10 -27 -5
3 -7 12 -3 20 7 20 -21 20 -37 0 -7 -8 -18 -15 -24 -15 -6 0 -18 -9 -26 -20
-8 -11 -18 -20 -23 -20 -4 0 -18 -9 -29 -20 -17 -15 -24 -17 -30 -8 -6 10 -10
10 -16 1 -8 -13 -52 -6 -52 8 0 5 -5 9 -11 9 -5 0 -7 -4 -4 -10 3 -5 2 -10 -3
-10 -6 0 -13 7 -16 16 -5 12 -14 14 -34 10 -15 -4 -22 -3 -16 1 7 5 4 14 -8
25 -10 10 -20 13 -23 8 -10 -16 -22 -11 -28 10 -6 23 -21 26 -39 6 -11 -11
-16 -7 -34 28 -15 30 -27 40 -42 39 -11 -1 -23 4 -26 12 -3 9 1 15 10 15 8 0
12 5 9 11 -4 6 -14 8 -22 5 -13 -5 -14 -1 -9 25 5 25 3 30 -9 25 -9 -3 -15 1
-15 10 0 11 -6 15 -19 11 -12 -3 -27 3 -37 15 -15 15 -16 23 -6 38 15 24 6 29
-57 35 -38 3 -51 0 -51 -9 0 -8 -9 -16 -20 -19 -21 -5 -29 16 -10 28 7 4 6 13
-1 27 -14 26 -1 39 40 40 38 1 48 13 24 26 -15 9 -14 10 7 10 14 1 51 2 82 4
32 2 54 0 51 -6 -4 -5 13 -6 41 -2 49 8 86 1 86 -15 0 -5 -10 -9 -22 -10 -21
-1 -21 -1 3 -9 15 -4 70 -8 124 -8 53 0 100 -3 103 -6 3 -3 -28 -6 -69 -6 -51
0 -69 -3 -59 -10 19 -12 198 -12 225 1 15 7 8 8 -25 5 -62 -6 -27 13 38 21 37
4 52 2 65 -12 12 -12 17 -13 17 -3 0 10 3 9 10 -2 5 -8 10 -11 10 -7 0 4 10
-2 22 -13 20 -19 24 -19 34 -5 10 14 12 14 18 -2 5 -13 9 -14 15 -5 5 8 17 11
33 7 18 -5 27 -2 32 10 4 12 2 16 -8 12 -10 -4 -13 -1 -9 8 10 28 93 -2 93
-33 0 -5 9 -12 20 -15 27 -7 27 29 0 38 -11 4 -18 11 -14 16 3 5 10 7 15 4 17
-11 9 19 -12 41 -30 32 -33 82 -6 105 16 14 19 21 10 27 -16 11 5 72 25 72 7
0 10 5 6 11 -3 6 -1 15 7 19 10 7 10 11 0 24 -8 10 -11 28 -7 46 3 17 2 30 -3
30 -5 0 -11 -20 -14 -45 -7 -46 -25 -85 -40 -85 -5 0 -7 6 -4 13 4 10 -2 13
-20 9 -18 -3 -24 -1 -19 7 6 10 -5 14 -30 10 -4 0 -10 4 -13 10 -4 5 -22 13
-40 16 -19 3 -38 8 -42 11 -5 2 -31 6 -59 8 -46 4 -50 2 -45 -15 6 -17 1 -19
-42 -18 -26 1 -40 3 -30 6 9 2 17 9 17 14 0 12 -6 11 -40 -6 -22 -11 -29 -12
-33 -2 -6 15 -110 15 -130 0 -26 -21 -56 -22 -63 -1 -5 18 -7 18 -23 4 -10 -9
-22 -16 -28 -16 -6 0 -14 -6 -16 -12 -4 -10 -6 -10 -6 0 -1 6 -7 12 -14 12
-24 0 -47 34 -40 60 6 25 33 71 33 57 0 -5 15 3 33 16 17 14 49 28 69 31 22 4
44 16 53 29 8 12 15 16 15 9 0 -6 5 -12 10 -12 6 0 10 7 10 15 0 9 6 12 15 9
10 -4 15 0 15 11 0 15 2 16 18 4 15 -12 16 -12 4 2 -7 9 -10 25 -6 35 12 37
27 63 35 59 4 -3 5 4 2 15 -3 11 -9 20 -14 20 -5 0 -6 7 -3 15 4 8 1 15 -5 15
-6 0 -11 4 -11 10 0 5 -11 20 -25 34 l-25 25 6 -27 6 -27 -21 25 c-11 14 -21
31 -21 38 0 8 -20 12 -65 12 -55 0 -65 -3 -66 -17 -2 -74 -19 -129 -19 -65 0
18 -5 32 -11 32 -7 0 -9 10 -5 25 6 23 4 25 -30 25 -28 0 -35 -3 -32 -17 2
-10 11 -17 20 -17 11 1 18 -8 20 -27 6 -37 -3 -37 -32 1 -12 16 -27 27 -33 23
-6 -4 -8 2 -5 15 6 20 2 22 -35 21 -23 0 -36 -3 -29 -6 6 -2 9 -10 5 -16 -4
-6 -8 -31 -9 -54 -2 -36 1 -43 16 -43 11 0 24 8 29 18 10 16 10 16 11 0 0 -9
-4 -20 -10 -23 -17 -11 -11 -25 8 -18 15 6 15 5 3 -10 -7 -9 -11 -26 -8 -36 3
-14 1 -18 -9 -14 -34 13 -8 -21 39 -52 15 -10 26 -19 24 -22 -5 -4 -90 39 -98
50 -3 4 -10 2 -16 -5 -31 -40 -42 -146 -18 -182 24 -37 16 -70 -17 -74 -22 -3
-28 1 -28 17 0 11 -6 26 -12 33 -63 68 -92 238 -40 238 13 0 12 3 -3 20 -13
15 -14 20 -5 20 11 0 11 3 2 12 -10 10 -15 10 -22 -2 -5 -8 -10 -10 -11 -5 0
6 -4 1 -9 -10 -7 -17 -9 -17 -9 -2 -1 9 -6 17 -12 17 -6 0 -8 -7 -5 -16 4 -9
1 -23 -5 -30 -7 -9 -9 -28 -4 -52 3 -20 9 -57 12 -82 l5 -44 -22 24 -21 25 7
-25 c4 -14 9 -31 12 -39 3 -9 1 -12 -6 -7 -7 4 -12 13 -12 21 0 8 -4 16 -9 19
-5 3 -16 -29 -26 -72 -22 -104 -24 -110 -34 -93 -6 9 -11 10 -15 2 -11 -18
-29 -13 -21 7 3 9 9 35 11 57 3 22 7 54 9 70 2 17 8 41 14 55 8 21 10 22 11 5
0 -17 2 -17 10 -5 11 20 6 73 -9 78 -6 2 -9 8 -5 13 3 5 -2 18 -10 30 -8 12
-12 28 -9 35 3 8 0 20 -5 27 -6 7 -9 34 -7 60 3 33 1 46 -7 44 -7 -1 -17 8
-22 20 -15 31 -66 29 -66 -3z m16 -71 c-11 -11 -17 4 -9 23 7 18 8 18 11 1 2
-10 1 -21 -2 -24z m244 -192 c0 -12 -6 -9 -20 9 -26 33 -26 48 0 25 11 -10 20
-25 20 -34z m-257 -140 c-2 -2 -3 1 -3 7 0 7 -4 12 -10 12 -5 0 -8 -6 -5 -12
2 -7 6 -42 9 -78 l5 -65 -14 50 c-14 49 -13 101 3 210 6 49 7 48 12 -35 3 -47
4 -87 3 -89z m572 149 c3 -6 -1 -7 -9 -4 -18 7 -21 14 -7 14 6 0 13 -4 16 -10z
m-157 -50 c-6 -22 -14 -40 -19 -40 -5 0 -6 6 -4 13 28 78 39 92 23 27z m-126
-84 c-3 -6 -11 6 -18 25 -18 50 -16 59 5 19 11 -19 16 -39 13 -44z m508 -126
c0 -5 -5 -10 -11 -10 -5 0 -7 5 -4 10 3 6 8 10 11 10 2 0 4 -4 4 -10z m-680
-3 c0 -2 -8 -11 -18 -20 -15 -14 -19 -15 -19 -2 0 8 4 12 8 9 4 -2 10 0 14 6
6 10 15 14 15 7z m400 -47 c0 -5 -7 -10 -16 -10 -8 0 -12 5 -9 10 3 6 10 10
16 10 5 0 9 -4 9 -10z m18 -84 c67 -23 15 -43 -68 -26 -3 0 4 7 14 15 17 13
18 15 3 15 -9 0 -17 5 -17 11 0 7 7 8 18 4 9 -5 32 -13 50 -19z m-102 -12
c-22 -21 -39 -17 -18 4 9 11 20 17 25 15 4 -2 1 -11 -7 -19z m518 -26 c14 -7
17 -7 11 2 -9 15 34 4 52 -14 9 -8 -2 -12 -49 -13 -55 -2 -88 8 -88 26 0 10
54 10 74 -1z m-265 -39 c-16 -10 -23 -4 -14 10 3 6 11 8 17 5 6 -4 5 -9 -3
-15z m586 -9 c-3 -5 -11 -10 -16 -10 -6 0 -7 5 -4 10 3 6 11 10 16 10 6 0 7
-4 4 -10z m-985 -55 c0 -5 -5 -3 -10 5 -5 8 -10 20 -10 25 0 6 5 3 10 -5 5 -8
10 -19 10 -25z m-190 -90 c6 -4 11 -1 9 6 -4 34 4 40 11 9 4 -19 11 -44 15
-55 5 -11 -10 0 -32 24 -26 27 -46 41 -55 36 -7 -3 -4 1 7 9 18 15 20 15 27
-3 3 -10 12 -22 18 -26z m277 15 c2 -11 -1 -20 -6 -20 -15 0 -23 18 -11 25 6
4 7 12 4 18 -4 7 -3 9 1 4 5 -4 10 -16 12 -27z m-311 -77 c-7 -7 -26 7 -26 19
0 6 6 6 15 -2 9 -7 13 -15 11 -17z m534 -108 c0 -5 -5 -3 -10 5 -5 8 -10 20
-10 25 0 6 5 3 10 -5 5 -8 10 -19 10 -25z m-266 -1 c3 -8 2 -12 -4 -9 -6 3
-10 10 -10 16 0 14 7 11 14 -7z m-33 -34 c-8 -4 -21 -5 -30 -2 -12 5 -10 8 9
12 29 8 40 3 21 -10z m125 -8 c-18 -16 -18 -16 -6 6 6 13 14 21 18 18 3 -4 -2
-14 -12 -24z m-102 -11 c3 -5 -1 -12 -10 -15 -20 -8 -29 -1 -19 13 8 13 22 14
29 2z m76 -21 c0 -5 -4 -10 -10 -10 -5 0 -10 5 -10 10 0 6 5 10 10 10 6 0 10
-4 10 -10z m-95 -20 c4 -6 -5 -10 -20 -10 -15 0 -24 4 -20 10 3 6 12 10 20 10
8 0 17 -4 20 -10z m72 -30 c4 0 15 7 25 17 10 9 21 13 26 9 4 -4 -1 -13 -11
-20 -18 -14 -23 -36 -8 -36 5 0 11 9 14 21 3 12 10 18 16 14 15 -8 14 -35 -1
-35 -6 0 -2 -8 10 -18 16 -14 18 -22 10 -30 -15 -15 -31 -16 -22 -1 3 6 -5 3
-20 -6 -15 -10 -24 -20 -21 -23 10 -10 45 -9 45 2 0 6 4 6 11 -1 15 -15 3 -34
-16 -26 -11 4 -13 1 -9 -11 4 -11 13 -14 28 -10 14 3 27 -1 35 -10 11 -13 11
-16 -3 -16 -20 0 -20 -9 -1 -30 14 -15 14 -19 -2 -31 -9 -8 -14 -9 -10 -3 4 6
-5 24 -18 40 -14 16 -28 37 -31 47 -3 9 -12 17 -19 17 -20 0 -47 42 -35 54 13
13 13 36 0 36 -5 0 -10 -7 -10 -16 0 -8 -4 -13 -9 -10 -9 6 -9 24 4 81 7 30
10 34 13 18 2 -13 6 -23 9 -23z m666 28 c-12 -17 -15 -60 -3 -53 11 7 8 -48
-4 -56 -5 -4 -5 -13 0 -20 5 -8 9 -27 10 -44 1 -16 -1 -24 -3 -17 -6 15 -39
16 -48 2 -10 -16 -25 -1 -18 18 5 14 4 15 -8 4 -11 -10 -17 -8 -31 10 -10 13
-18 18 -18 11 0 -6 5 -15 10 -18 15 -9 12 -25 -5 -25 -8 0 -14 -6 -12 -12 1
-7 -8 -14 -20 -16 -13 -2 -23 -7 -23 -12 0 -5 -6 -7 -14 -4 -8 3 -17 1 -21 -5
-3 -6 -14 -11 -23 -11 -12 0 -9 6 10 18 19 11 26 22 22 34 -7 22 10 55 20 39
13 -21 26 -12 17 12 -10 27 1 53 18 43 6 -4 11 -1 11 6 0 20 70 84 105 96 40
14 39 14 28 0z m-723 -28 c26 -16 4 -21 -26 -5 -23 12 -25 15 -9 15 11 0 27
-4 35 -10z m1240 -114 c13 -39 20 -85 20 -133 0 -81 -14 -99 -23 -28 -2 26 -7
48 -10 51 -11 11 -27 -7 -27 -31 0 -27 -36 -40 -73 -26 -14 5 -48 8 -76 5 -29
-3 -51 -1 -51 5 0 5 -8 7 -19 4 -11 -3 -21 2 -24 12 -5 12 -3 14 10 7 11 -6
28 -5 52 5 24 10 36 12 39 4 7 -20 17 -11 19 16 0 16 -4 31 -10 35 -9 6 -8 11
3 18 13 8 13 10 -2 10 -13 0 -11 7 13 32 16 18 29 35 29 39 0 3 18 11 40 18
21 6 42 16 46 22 10 17 22 -1 44 -65z m-1286 39 c-4 -8 -8 -15 -10 -15 -2 0
-4 7 -4 15 0 8 4 15 10 15 5 0 7 -7 4 -15z m220 -66 c-6 -11 -24 -2 -24 11 0
5 7 7 15 4 8 -4 12 -10 9 -15z m279 -62 c-1 -20 1 -37 5 -37 11 0 7 -90 -4
-98 -5 -4 -15 -19 -23 -34 -8 -16 -21 -28 -28 -28 -8 0 -11 5 -8 10 4 6 -5 24
-19 40 -16 19 -26 25 -29 17 -3 -7 -6 -5 -6 5 -1 9 -9 22 -18 27 -16 9 -15 10
7 11 l25 0 -24 19 c-18 14 -21 22 -14 37 6 10 8 25 6 32 -3 7 -1 12 4 11 4 -1
19 2 33 8 50 20 55 22 75 20 17 -2 20 -8 18 -40z m317 -136 c0 -17 -15 -19
-28 -5 -11 12 -9 14 8 14 11 0 20 -4 20 -9z m-209 -44 c10 -17 8 -18 -13 -12
-20 5 -20 4 -5 -5 29 -19 19 -30 -12 -12 -16 9 -27 22 -25 29 14 46 14 46 30
32 8 -7 20 -21 25 -32z m-161 -101 c0 -3 -4 -8 -10 -11 -5 -3 -10 -1 -10 4 0
6 5 11 10 11 6 0 10 -2 10 -4z"/>
<path d="M985 620 c-19 -8 -19 -9 -1 -9 11 -1 28 -8 38 -18 10 -9 18 -12 18
-6 0 20 -35 41 -55 33z"/>
<path d="M350 1881 c0 -15 6 -21 21 -21 25 0 22 33 -4 38 -12 2 -17 -3 -17
-17z"/>
<path d="M1221 1883 c8 -10 18 -21 24 -25 15 -11 -2 -20 -24 -13 -12 3 -18 11
-15 17 4 7 2 8 -4 4 -7 -4 -12 -2 -12 5 0 7 -2 10 -5 7 -3 -3 -1 -16 4 -30 7
-19 19 -27 47 -31 21 -4 43 -2 48 3 7 7 6 10 -2 10 -7 0 -20 16 -29 35 -9 19
-23 35 -31 35 -12 0 -12 -3 -1 -17z"/>
<path d="M1300 1885 c7 -8 19 -15 26 -15 8 0 14 -5 14 -11 0 -6 -8 -8 -19 -4
-23 7 -39 -14 -20 -26 10 -6 11 -9 2 -9 -7 0 -13 -4 -13 -10 0 -5 14 -10 30
-10 17 0 30 -4 30 -10 0 -5 7 -7 15 -4 11 5 13 2 8 -11 -4 -12 0 -23 12 -31
15 -11 16 -14 3 -19 -8 -3 -19 -5 -24 -4 -21 4 -44 -2 -44 -10 0 -5 10 -7 23
-3 19 5 20 3 9 -10 -23 -29 12 -43 117 -45 72 -2 99 -7 107 -18 14 -19 28 -20
21 -1 -4 11 -1 11 18 2 13 -6 23 -15 22 -20 -1 -6 7 -10 18 -11 11 0 21 -7 21
-15 1 -8 2 -22 3 -30 1 -8 5 -21 10 -29 12 -19 57 12 65 45 4 13 11 24 16 24
6 0 6 -10 0 -26 -11 -29 -3 -94 11 -94 5 0 9 -6 9 -14 0 -8 5 -18 11 -22 7 -4
9 0 5 14 -4 11 -2 23 4 27 5 3 10 25 10 49 0 32 -6 48 -23 64 -13 12 -27 19
-30 15 -4 -3 -7 3 -7 15 0 12 -8 37 -17 57 -14 29 -15 38 -4 44 9 6 10 11 2
15 -6 4 -11 1 -11 -6 -1 -8 -6 -6 -15 6 -20 27 -28 15 -14 -20 6 -16 11 -43
10 -61 0 -18 4 -35 9 -38 14 -9 12 -48 -4 -70 -13 -18 -14 -18 -25 3 -6 12 -7
23 -2 26 5 4 12 0 14 -6 3 -7 6 2 6 20 1 22 -4 32 -14 32 -11 0 -14 9 -10 35
2 19 0 37 -5 40 -6 4 -10 17 -10 31 0 14 -7 27 -15 30 -9 4 -14 14 -13 23 2
11 -3 15 -18 13 -18 -2 -54 24 -47 34 7 11 -35 64 -49 64 -25 0 -22 -10 15
-50 51 -55 58 -74 34 -95 -19 -17 -20 -17 -13 0 6 16 -14 50 -77 128 -17 22
-17 22 -5 -8 6 -16 15 -34 20 -39 11 -13 10 -26 -1 -26 -5 0 -20 20 -32 45
-19 38 -27 45 -51 45 l-29 0 42 -50 c23 -27 53 -57 67 -66 24 -16 25 -15 18 1
-5 15 -4 16 9 5 18 -15 20 -39 2 -36 -24 3 -83 46 -132 95 -37 38 -57 51 -78
51 -25 0 -28 -2 -17 -15z m97 -127 c-3 -8 -6 -5 -6 6 -1 11 2 17 5 13 3 -3 4
-12 1 -19z m93 -29 c0 -6 -4 -7 -10 -4 -5 3 -10 11 -10 16 0 6 5 7 10 4 6 -3
10 -11 10 -16z m115 11 c3 -5 -1 -10 -10 -10 -9 0 -13 5 -10 10 3 6 8 10 10
10 2 0 7 -4 10 -10z"/>
<path d="M1580 1896 c-1 -28 26 -76 42 -76 10 0 18 4 18 10 0 13 -59 78 -60
66z"/>
<path d="M900 1875 c0 -8 5 -15 10 -15 6 0 10 -6 10 -14 0 -14 29 -31 38 -21
3 2 -1 12 -9 22 -12 15 -12 16 4 10 13 -5 17 -3 14 5 -2 7 -11 12 -20 10 -8
-1 -18 2 -22 8 -9 15 -25 12 -25 -5z"/>
<path d="M1656 1860 c3 -14 10 -29 15 -34 14 -16 10 6 -7 34 l-15 25 7 -25z"/>
<path d="M436 1834 c-8 -21 -8 -21 8 -27 8 -3 16 2 19 13 6 23 -19 35 -27 14z"/>
<path d="M970 1833 c0 -5 5 -15 10 -23 8 -12 10 -11 10 8 0 12 -4 22 -10 22
-5 0 -10 -3 -10 -7z"/>
<path d="M1817 1823 c-4 -3 0 -14 9 -24 10 -11 14 -25 9 -36 -6 -16 -8 -15
-21 10 -8 15 -19 27 -23 27 -17 0 -21 -49 -6 -90 8 -23 12 -46 9 -51 -3 -5 0
-9 6 -9 6 0 15 -12 21 -26 5 -15 13 -24 16 -20 11 11 9 50 -2 58 -6 5 -5 8 3
8 6 0 12 7 12 15 0 9 7 18 15 21 8 4 15 9 15 13 0 17 -57 111 -63 104z"/>
<path d="M376 1804 c-4 -10 -1 -14 6 -12 15 5 23 28 10 28 -5 0 -13 -7 -16
-16z"/>
<path d="M960 1789 c0 -4 6 -9 13 -12 6 -2 9 -8 5 -12 -4 -4 -19 0 -34 9 -26
18 -45 17 -22 -1 20 -15 80 -34 87 -27 3 4 0 9 -6 11 -22 8 -14 22 15 25 21 3
18 5 -15 9 -24 2 -43 1 -43 -2z"/>
<path d="M360 1750 c0 -5 4 -10 10 -10 5 0 7 -7 4 -15 -4 -8 -2 -15 4 -15 19
0 20 27 1 38 -12 8 -19 8 -19 2z"/>
<path d="M408 1735 c-6 -30 -3 -43 8 -33 3 4 4 19 2 35 l-3 28 -7 -30z"/>
<path d="M478 1738 c12 -12 25 -19 28 -15 4 4 -1 14 -12 22 -29 22 -41 18 -16
-7z"/>
<path d="M20 1741 c0 -6 4 -13 10 -16 6 -3 7 1 4 9 -7 18 -14 21 -14 7z"/>
<path d="M230 1724 c0 -8 5 -12 10 -9 6 3 10 10 10 16 0 5 -4 9 -10 9 -5 0
-10 -7 -10 -16z"/>
<path d="M2 1710 c0 -14 2 -19 5 -12 2 6 2 18 0 25 -3 6 -5 1 -5 -13z"/>
<path d="M360 1641 c0 -28 5 -53 10 -56 6 -4 10 15 10 49 0 31 -4 56 -10 56
-5 0 -10 -22 -10 -49z"/>
<path d="M422 1660 c0 -14 2 -19 5 -12 2 6 2 18 0 25 -3 6 -5 1 -5 -13z"/>
<path d="M1888 1620 c2 -22 6 -40 8 -40 2 0 4 18 4 40 0 22 -3 40 -8 40 -4 0
-6 -18 -4 -40z"/>
<path d="M1436 1608 c3 -18 7 -80 9 -138 5 -181 14 -238 54 -320 35 -73 37
-75 68 -72 20 2 56 -7 90 -22 50 -22 54 -23 30 -5 -33 25 -26 45 8 23 13 -9
32 -14 42 -11 27 6 -48 37 -92 37 -28 0 -35 4 -35 20 0 12 7 20 18 21 9 1 29
3 44 5 15 1 31 -2 34 -8 5 -7 1 -9 -9 -5 -10 3 -17 2 -17 -4 0 -7 14 -8 39 -4
34 6 39 4 45 -17 7 -23 7 -23 22 5 22 41 11 73 -33 94 -33 15 -35 18 -15 23
16 4 19 9 12 20 -5 8 -10 20 -10 25 0 6 5 3 10 -5 8 -13 11 -12 23 4 8 11 12
27 10 36 -3 11 2 16 16 16 12 0 21 -6 21 -13 0 -7 7 -13 15 -13 8 0 15 4 15
10 0 22 -65 40 -162 43 -27 1 -48 6 -48 10 0 9 -90 6 -119 -4 -11 -3 -18 9
-25 41 -6 25 -14 50 -17 55 -4 6 -5 48 -3 95 2 48 0 79 -5 72 -7 -11 -9 -11
-14 2 -12 30 -28 17 -21 -16z"/>
<path d="M1370 1570 c0 -5 5 -10 10 -10 6 0 10 5 10 10 0 6 -4 10 -10 10 -5 0
-10 -4 -10 -10z"/>
<path d="M1880 1518 c-12 -22 -12 -22 6 -6 10 10 15 20 12 24 -4 3 -12 -5 -18
-18z"/>
<path d="M100 1510 c0 -5 0 -12 0 -15 0 -12 14 -4 16 10 1 8 -2 15 -7 15 -5 0
-9 -4 -9 -10z"/>
<path d="M1720 1510 c0 -5 5 -10 10 -10 6 0 10 5 10 10 0 6 -4 10 -10 10 -5 0
-10 -4 -10 -10z"/>
<path d="M1885 1440 c-3 -5 -1 -10 4 -10 6 0 11 5 11 10 0 6 -2 10 -4 10 -3 0
-8 -4 -11 -10z"/>
<path d="M1810 1390 c0 -5 5 -10 10 -10 6 0 10 5 10 10 0 6 -4 10 -10 10 -5 0
-10 -4 -10 -10z"/>
<path d="M1870 1360 c0 -11 2 -20 5 -20 2 0 9 9 15 20 9 16 8 20 -5 20 -8 0
-15 -9 -15 -20z"/>
<path d="M1870 1301 c0 -16 5 -33 10 -36 6 -4 10 6 10 24 0 16 -4 33 -10 36
-6 4 -10 -6 -10 -24z"/>
<path d="M1836 1254 c7 -37 16 -47 12 -12 -2 15 -7 30 -11 34 -3 3 -4 -6 -1
-22z"/>
<path d="M1887 1175 c3 -44 7 -82 9 -84 8 -9 2 125 -6 144 -4 12 -6 -14 -3
-60z"/>
<path d="M448 1123 c-10 -2 -18 -9 -18 -14 0 -12 17 -12 25 1 4 6 11 7 17 4 7
-4 8 -2 4 4 -4 7 -8 11 -9 11 -1 -1 -10 -3 -19 -6z"/>
<path d="M1040 1100 c0 -6 7 -10 15 -10 8 0 15 2 15 4 0 2 -7 6 -15 10 -8 3
-15 1 -15 -4z"/>
<path d="M1805 1096 c-5 -11 -3 -36 4 -60 25 -85 27 -104 20 -226 -5 -109 -10
-134 -36 -195 -36 -82 -55 -141 -78 -245 -27 -121 -56 -191 -130 -311 -5 -9
-16 -26 -23 -38 l-13 -21 176 0 175 0 0 524 c0 383 -3 527 -11 532 -8 5 -10
-1 -7 -20 3 -14 1 -26 -4 -26 -5 0 -8 -6 -7 -12 1 -7 -3 -24 -9 -38 l-11 -25
-2 30 c-1 17 -1 54 0 83 1 36 -1 52 -8 47 -6 -3 -12 -16 -12 -28 -1 -14 -4 -9
-9 13 -5 30 -8 32 -15 16z"/>
<path d="M1570 1060 c0 -5 7 -10 16 -10 8 0 12 5 9 10 -3 6 -10 10 -16 10 -5
0 -9 -4 -9 -10z"/>
<path d="M1340 1010 c6 -11 18 -20 27 -20 12 0 11 4 -7 20 -13 11 -25 20 -27
20 -2 0 1 -9 7 -20z"/>
<path d="M1160 990 c0 -5 6 -7 14 -4 8 3 17 1 21 -5 3 -6 21 -11 38 -11 30 1
31 1 13 15 -22 17 -86 20 -86 5z"/>
<path d="M1320 980 c0 -5 5 -10 10 -10 6 0 10 5 10 10 0 6 -4 10 -10 10 -5 0
-10 -4 -10 -10z"/>
<path d="M688 963 c7 -3 16 -2 19 1 4 3 -2 6 -13 5 -11 0 -14 -3 -6 -6z"/>
<path d="M1764 639 c-3 -6 -1 -16 5 -22 8 -8 11 -5 11 11 0 24 -5 28 -16 11z"/>
<path d="M1602 271 c-7 -4 -10 -15 -6 -24 3 -9 10 -14 15 -11 5 3 9 0 9 -5 0
-6 -4 -11 -10 -11 -5 0 -10 -9 -10 -20 0 -29 17 -24 25 8 11 39 13 62 4 56 -4
-2 -9 0 -11 6 -1 5 -9 6 -16 1z"/>
<path d="M1191 33 c-1 -7 -9 -13 -18 -13 -12 0 -14 -3 -6 -11 18 -18 41 -7 32
16 -4 11 -8 14 -8 8z"/>
</g>
</svg>
